<?xml version="1.0" encoding="UTF-8"?>
<svg id="Layer_1" data-name="Layer 1" xmlns="http://www.w3.org/2000/svg" viewBox="0 0 183.81 21.92">
  <path d="M177.78,15.73c-.64-1.19-1.71-3.01-3.19-5.45l-2.16,2.56.11,3.08-4.78.17c0-2.77-.03-5.36-.12-7.77-.08-2.41-.22-4.99-.42-7.76l4.78-.17.22,6.26c2.26-2.68,3.87-4.82,4.81-6.44l6.22-.22-5.81,6.88c.94,1.37,2,2.85,3.17,4.45,1.18,1.6,2.25,3,3.2,4.19l-6.03.21Z"/>
  <path d="M156.61.69c2.41-.08,4.32.18,5.74.78,1.42.59,2.42,1.46,3.01,2.59.6,1.12.93,2.51.99,4.18.06,1.58-.22,2.98-.81,4.18-.6,1.21-1.53,2.16-2.78,2.86-1.26.69-2.82,1.06-4.69,1.13-1.14.04-2.3.08-3.48.12-1.18.04-2.37.08-3.57.1,0-2.81-.04-5.43-.12-7.85-.09-2.45-.23-5.01-.42-7.67,1.52-.2,3.56-.34,6.13-.43ZM158.45,12.15c1.19-.04,1.97-.39,2.35-1.05s.54-1.55.5-2.67c-.04-1.08-.28-1.95-.73-2.61-.43-.66-1.22-.96-2.38-.92-1.24.04-2.17.12-2.78.23l.25,7.12,2.78-.1Z"/>
  <path d="M149.32,1.21c0,2.41.04,4.99.14,7.75.1,2.77.23,5.35.41,7.76l-6.87.24-5.05-11.51.75,11.66-4.93.17c0-2.77-.03-5.36-.12-7.77-.08-2.39-.23-4.97-.42-7.74l7.06-.25,5.08,11.83-.74-11.98,4.7-.16Z"/>
  <path d="M121.89,13.77c4.86-.2,8.38-.4,10.57-.6-.07.59-.11,1.2-.11,1.82,0,.61.03,1.39.06,2.33l-14.91.52c0-2.77-.03-5.36-.12-7.77-.08-2.41-.22-4.99-.42-7.76l14.91-.52.13,3.87-10.38.36.07,2.05c.61,0,1.52-.03,2.73-.07,2.03-.07,4.14-.19,6.31-.35l.13,3.68c-2.18,0-4.28.02-6.32.09-1.2.04-2.11.08-2.72.12l.08,2.22Z"/>
  <path d="M106.99,13.88c3.71-.16,6.78-.34,9.21-.54-.14.73-.22,1.43-.23,2.11-.01.67,0,1.48.03,2.44l-13.53.47c0-2.77-.03-5.36-.12-7.77-.08-2.41-.22-4.99-.42-7.76l4.68-.16.39,11.2Z"/>
  <path d="M92.76,18.92c-2.93.1-5.11-.53-6.54-1.89-1.43-1.38-2.19-3.35-2.28-5.91-.09-2.54.53-4.54,1.85-6.02,1.33-1.47,3.47-2.26,6.41-2.36,2.96-.1,5.14.53,6.56,1.91,1.43,1.38,2.19,3.33,2.28,5.87.09,2.58-.53,4.6-1.84,6.06-1.32,1.46-3.46,2.24-6.43,2.34ZM92.61,14.55c1.42-.05,2.43-.38,3.04-1.01.61-.63.89-1.59.84-2.88-.04-1.25-.39-2.18-1.04-2.77-.65-.59-1.68-.86-3.1-.81-1.41.05-2.41.39-3.02,1.03-.61.63-.89,1.58-.84,2.83.04,1.27.39,2.2,1.04,2.79.65.59,1.68.86,3.08.81Z"/>
  <path d="M78.98,19.18c-.64-1.19-1.71-3.01-3.19-5.45l-2.16,2.56.11,3.08-4.78.17c0-2.77-.03-5.36-.12-7.77-.08-2.41-.23-4.99-.42-7.76l4.78-.17.22,6.26c2.26-2.68,3.87-4.82,4.81-6.44l6.22-.22-5.81,6.88c.94,1.37,2,2.85,3.17,4.45,1.18,1.6,2.25,3,3.2,4.19l-6.03.21Z"/>
  <path d="M51.55,18.3c.41-.74.74-1.43,1-2.07.27-.64.53-1.37.77-2.21.93.55,2,.97,3.21,1.26,1.21.29,2.34.41,3.38.37,1.06-.04,1.81-.16,2.24-.38.43-.23.64-.46.63-.71-.03-.87-1.24-1.26-3.62-1.18-2.61.09-4.51-.14-5.71-.7-1.2-.57-1.82-1.53-1.87-2.89-.07-1.92.6-3.37,2-4.33,1.4-.96,3.25-1.48,5.54-1.56,1.33-.05,2.7.1,4.11.43,1.42.32,2.71.79,3.85,1.41-.34.95-.69,2.11-1.05,3.48-.07.29-.12.5-.17.65-.67-.56-1.68-1.01-3.01-1.35-1.33-.35-2.5-.51-3.51-.48-1.22.04-2.03.16-2.45.36-.42.19-.62.45-.61.79.01.34.31.61.89.8.6.18,1.44.25,2.54.21,2.71-.09,4.7.19,5.95.84,1.25.64,1.9,1.67,1.95,3.1.07,2-.53,3.46-1.81,4.39-1.27.92-3.24,1.42-5.89,1.51-1.42.05-2.87-.07-4.36-.36-1.48-.31-2.83-.77-4.03-1.4Z"/>
  <path d="M49.92,4.63l.26,7.55c.09,2.67-.46,4.73-1.65,6.18-1.18,1.44-3.11,2.21-5.78,2.3-1.54.05-2.96-.15-4.29-.6-1.31-.45-2.48-1.06-3.52-1.83.21-.89.38-1.75.51-2.57.13-.82.21-1.71.25-2.68,1.36,1.14,2.6,1.91,3.73,2.33,1.13.42,2.2.61,3.21.57,1.05-.04,1.79-.33,2.22-.87.43-.54.63-1.46.6-2.74l-.06-1.63c-.08-2.31-.21-4.26-.38-5.85l4.89-.17Z"/>
  <path d="M34.54,6.46l-1.29,1.57c.84,1.23,1.29,2.83,1.36,4.81.09,2.58-.52,4.6-1.84,6.06-1.32,1.46-3.46,2.24-6.43,2.34-1.43.05-2.67-.08-3.72-.38l-.63.75-4.25-1.78,1.22-1.46c-.89-1.27-1.37-2.91-1.44-4.94-.09-2.54.53-4.54,1.85-6.02,1.33-1.47,3.47-2.26,6.41-2.36,1.48-.05,2.77.09,3.86.42l.66-.79,4.25,1.78ZM22.05,13.27c.01.38.06.78.14,1.17l4.17-5.03c-.09-.01-.24-.01-.44,0-1.41.05-2.41.39-3.02,1.03-.61.63-.89,1.58-.84,2.83ZM30.06,12.99c-.01-.38-.05-.72-.11-1l-4.06,4.89h.29c1.42-.06,2.43-.39,3.04-1.02.61-.63.89-1.59.84-2.88Z"/>
  <path d="M16.08,5.84c0,2.41.04,5,.14,7.77s.23,5.35.41,7.76l-4.51.16-.2-5.82-7.06.25.2,5.82-4.51.16c0-2.77-.03-5.36-.12-7.77-.08-2.41-.23-4.99-.42-7.76l4.51-.16.2,5.82,7.06-.25-.2-5.82,4.51-.16Z"/>
</svg>